<?xml version="1.1" standalone="no"?>
<svg xmlns="http://www.w3.org/2000/svg" version="1.1" baseProfile="full" width="309.6702198925945" height="351.11562499999997" viewBox="0 0 312.5 354.3241350445527" class="looka-1j8o68f">
	<defs id="SvgjsDefs3015">
	</defs>
	<g id="SvgjsG3016" featurekey="rootContainer" transform="matrix(6.3004014813942035,0,0,6.3004014813942035,0.000046358657472104394,0.02629461114787117)" fill="#4d7380">
		<path xmlns="http://www.w3.org/2000/svg" d="M23.11 55.78L1.69 43.41A3.39 3.39 0 0 1 0 40.48V15.75a3.39 3.39 0 0 1 1.69-2.94L23.11.45a3.39 3.39 0 0 1 3.39 0l21.41 12.37a3.39 3.39 0 0 1 1.69 2.94v24.72a3.39 3.39 0 0 1-1.69 2.94L26.5 55.78a3.39 3.39 0 0 1-3.39 0z">
		</path>
	</g>
	<g id="SvgjsG3017" featurekey="zfl5BF-0" transform="matrix(6.56618697003487,0,0,6.56618697003487,54.39719314443331,91.33435537585831)" fill="#e0ebfe">
		<path d="M3.9746 20.19531 c-1.0938 0 -2.4219 -0.29297 -3.7305 -0.97656 l1.2402 -2.4121 c0.69336 0.48828 1.3672 0.75195 2.1387 0.75195 c1.1523 0 1.7383 -0.69336 1.7383 -2.3438 l0 -9.3262 l2.9297 0 l0 9.873 c0 2.8906 -1.7578 4.4336 -4.3164 4.4336 z M14.013678125 20 l-3.6914 -14.111 l3.0469 0 l2.7539 10.684 l3.1543 -10.684 l2.4707 0 l3.1348 10.684 l2.7832 -10.684 l3.0371 0 l-3.6914 14.111 l-3.7695 0 l-2.7344 -8.7207 l-2.7246 8.7207 l-3.7695 0 z">
		</path>
	</g>
</svg>
